<?xml version="1.0" encoding="utf-8"?>
<svg width="20px" height="27px" viewBox="0 0 20 27" version="1.1" xmlns:xlink="http://www.w3.org/1999/xlink" xmlns="http://www.w3.org/2000/svg">
  <g id="document-901-2" opacity="0.22">
    <g id="Group">
      <g id="Group">
        <path d="M14.8118 0L0.829475 0C0.371314 0 0 0.371314 0 0.829475L0 24.8801C0 25.3383 0.371314 25.7096 0.829475 25.7096L18.1072 25.7096C18.5654 25.7096 18.9367 25.3383 18.9367 24.8801L18.9367 3.97132L14.8118 0L14.8118 0ZM15.641 3.97132C15.1828 3.97132 14.8115 3.6 14.8115 3.14184L14.8115 0L18.9364 3.97132L15.641 3.97132L15.641 3.97132Z" transform="translate(0.43811035 0.43807983)" id="Shape" fill="none" fill-rule="evenodd" stroke="none" />
        <g id="Group-2">
          <g id="Group">
            <path d="M18.9364 24.7182L18.9364 25.3182C18.9364 25.5335 18.7609 25.709 18.5453 25.709L1.26755 25.709C1.05191 25.709 0.876441 25.5335 0.876441 25.3182L0.876441 1.26755C0.876441 1.05191 1.05191 0.876443 1.26755 0.876443L14.8118 0.876443L14.8118 3.58021C14.8118 4.27912 15.3804 4.84776 16.079 4.84776L18.9364 4.84776L18.9364 24.7182C19.238 24.746 19.4093 25.177 19.8128 24.551L19.8128 4.41323C19.8131 4.38842 19.8111 4.3642 19.8075 4.33997C19.8075 4.33997 19.8072 4.33997 19.8072 4.33968C19.8072 4.33938 19.8072 4.33938 19.8072 4.33879L19.8072 4.33879C19.8072 4.3385 19.8069 4.3382 19.8069 4.3379C19.8049 4.3255 19.8025 4.31368 19.7993 4.30157L19.7993 4.30157C19.799 4.30128 19.7998 4.30068 19.799 4.30068C19.799 4.30009 19.799 4.2998 19.7987 4.2995L19.7987 4.2995C19.7792 4.22477 19.7399 4.15505 19.6829 4.09863L19.6826 4.09863C19.6826 4.09863 19.6823 4.09834 19.6823 4.09834C19.6802 4.09804 19.6817 4.09804 19.6814 4.09775C19.6823 4.09627 19.6808 4.09716 19.6808 4.09716C19.6802 4.09686 19.6811 4.09686 19.6799 4.09657C19.6802 4.09627 19.6793 4.09627 19.6793 4.09597C19.679 4.09568 19.6787 4.09568 19.6784 4.09538L15.5538 0.12259C15.5535 0.122294 15.5532 0.121999 15.5529 0.121704C15.5526 0.121408 15.5523 0.121113 15.552 0.120817C15.4927 0.0646919 15.4209 0.0271765 15.3444 0.0103389C15.3331 0.00797572 15.3222 0.00590794 15.311 0.00443095C15.3107 0.00443095 15.3107 0.00443095 15.3107 0.00443095C15.3101 0.00413557 15.3098 0.00443095 15.3092 0.00413557C15.3086 0.00413557 15.308 0.00384015 15.308 0.00413557C15.3077 0.00413557 15.3072 0.00413557 15.3066 0.00413557C15.306 0.00413557 15.3057 0.00384015 15.3051 0.00413557C15.3051 0.00413557 15.3048 0.00413557 15.3036 0.00384015C15.2847 0.000886186 15.2623 0.000886186 15.2469 0L1.26755 0C0.568638 0 0 0.568639 0 1.26755L0 25.3185C0 26.0171 0.568638 26.5857 1.26755 26.5857L18.5453 26.5857C19.2442 26.5857 19.8128 26.0171 19.8128 25.3185L19.8128 24.551C19.5304 24.6332 19.238 24.6905 18.9364 24.7182L18.9364 24.7182ZM15.6882 1.46841L18.2877 3.97131L16.079 3.97131C15.8637 3.97131 15.6882 3.79585 15.6882 3.58021L15.6882 1.46841L15.6882 1.46841Z" id="Shape" fill="#003462" fill-rule="evenodd" stroke="none" />
            <path d="M0.438368 0C0.196143 0 0 0.196145 0 0.438371C0 0.680595 0.196143 0.87674 0.438368 0.87674L7.13442 0.87674C7.37635 0.87674 7.57279 0.680595 7.57279 0.438371C7.57279 0.196145 7.37664 0 7.13442 0L0.438368 0L0.438368 0Z" transform="translate(2.6514893 19.614624)" id="Shape" fill="#003462" fill-rule="evenodd" stroke="none" />
            <path d="M14.8472 0.438371C14.8472 0.196439 14.6511 0 14.4089 0L0.438368 0C0.196143 0 0 0.196145 0 0.438371C0 0.680595 0.196143 0.87674 0.438368 0.87674L14.4089 0.87674C14.6511 0.876443 14.8472 0.6803 14.8472 0.438371L14.8472 0.438371Z" transform="translate(2.6514893 16.693115)" id="Shape" fill="#003462" fill-rule="evenodd" stroke="none" />
            <path d="M0.438368 0.876739L7.13442 0.876739C7.37635 0.876739 7.57279 0.680595 7.57279 0.438369C7.57279 0.196144 7.37664 0 7.13442 0L0.438368 0C0.196143 0 0 0.196144 0 0.438369C0.000295311 0.680595 0.196438 0.876739 0.438368 0.876739L0.438368 0.876739Z" transform="translate(2.6514893 7.9284363)" id="Shape" fill="#003462" fill-rule="evenodd" stroke="none" />
            <path d="M0.438368 0.876739L14.4089 0.876739C14.6508 0.876739 14.8472 0.680594 14.8472 0.438369C14.8472 0.196439 14.6511 0 14.4089 0L0.438368 0C0.196143 0 0 0.196143 0 0.438369C0.000295311 0.680594 0.196438 0.876739 0.438368 0.876739L0.438368 0.876739Z" transform="translate(2.6514893 13.771393)" id="Shape" fill="#003462" fill-rule="evenodd" stroke="none" />
          </g>
          <path d="M0.438369 0.87674L14.4089 0.87674C14.6508 0.87674 14.8472 0.680596 14.8472 0.43837C14.8472 0.196145 14.6511 0 14.4089 0L0.438369 0C0.196143 0 0 0.196145 0 0.43837C0 0.680596 0.196439 0.87674 0.438369 0.87674L0.438369 0.87674Z" transform="translate(2.6514893 10.849915)" id="Shape" fill="#003462" fill-rule="evenodd" stroke="none" />
        </g>
      </g>
    </g>
  </g>
</svg>